PathFileType	4	(X/Y/Z)	Patient4_TMGait_0pt3_01_left_07.trc.trc
DataRate	CameraRate	NumFrames	NumMarkers	Units	OrigDataRate	OrigDataStartFrame	OrigNumFrames
49.822064056939	49.822064056939	5	33	mm	49.822064056939	71	       141
Frame#	Time	Sacral			L.Shoulder			Chest			R.Shoulder			Neck			R.ASIS			L.ASIS			R.Thigh.Superior			R.Thigh.Lateral			R.Thigh.Inferior			R.Patella			L.Thigh.Superior			L.Thigh.Lateral			L.Thigh.Inferior			L.Patella			L.Shank.Superior			L.Shank.Lateral			L.Shank.Inferior			R.Shank.Superior			R.Shank.Lateral			R.Shank.Inferior			R.Heel			R.Midfoot.Superior			R.Midfoot.Lateral			R.Toe			L.Heel			L.Midfoot.Lateral			L.Midfoot.Superior			L.Toe			L.Elbow			L.Wrist			R.Elbow			R.Wrist			
		X1	Y1	Z1	X2	Y2	Z2	X3	Y3	Z3	X4	Y4	Z4	X5	Y5	Z5	X6	Y6	Z6	X7	Y7	Z7	X8	Y8	Z8	X9	Y9	Z9	X10	Y10	Z10	X11	Y11	Z11	X12	Y12	Z12	X13	Y13	Z13	X14	Y14	Z14	X15	Y15	Z15	X16	Y16	Z16	X17	Y17	Z17	X18	Y18	Z18	X19	Y19	Z19	X20	Y20	Z20	X21	Y21	Z21	X22	Y22	Z22	X23	Y23	Z23	X24	Y24	Z24	X25	Y25	Z25	X26	Y26	Z26	X27	Y27	Z27	X28	Y28	Z28	X29	Y29	Z29	X30	Y30	Z30	X31	Y31	Z31	X32	Y32	Z32	X33	Y33	Z33	

71	13.895000000000	777.412906001937	1008.247363906905	438.531408816617	1012.604412389624	1434.526353694063	299.602507559049	1072.561422608829	1360.904730445529	477.783480379331	953.911491569910	1436.610998999309	629.478376561064	963.282821795687	1494.316150329052	456.181626691218	983.558270780252	944.355017162288	598.256064538494	1016.481893782595	957.213982222750	324.048029343952	1056.100143719473	768.369900183216	575.827469683321	1003.337773130465	649.822181863473	643.393750529353	1093.130979646925	606.909784700309	568.824943109535	1120.879918706045	520.645013838463	590.891656282495	1035.609806661555	733.914083925477	367.117971502157	944.395046301269	623.013465237471	297.823204107004	1006.447542088443	540.900434891588	377.518795114218	997.304778785032	471.262867908741	388.066660968612	959.877058121712	402.463881874311	376.448610921384	861.454167462185	299.545121442189	319.927491215510	886.024478864597	185.136879294562	396.993587363260	1092.943737913935	432.370756059234	601.609239822290	1022.590289898621	328.300860228889	664.635832507788	1082.305977328638	233.095949179172	618.447080795999	969.438289223070	53.561329823128	589.255423715486	1133.189232092217	118.654293278921	636.687612234626	1050.069481831697	46.903884727865	666.008936278801	1254.759296684382	78.223527627398	670.253556985218	738.628215018216	39.139401976743	430.883312531103	814.615902227578	36.083405340829	352.603549452063	898.994027784980	95.609972357497	383.245229956263	1026.843932083337	39.881128939839	355.719459097872	1127.783405421990	1144.386076334163	124.175930044470	1385.407436678407	1133.053206220188	146.214776231958	793.420059350825	1119.946629531544	705.549854001725	789.892516282662	857.972337779824	719.455691469711	
72	13.915071428571	776.975228291487	1008.048948655617	439.987781712144	1012.524158105585	1434.350091174826	302.625556603363	1071.104804718533	1360.978019736056	481.408597374312	951.119327129649	1436.879265534235	631.952193407346	961.919355774756	1494.358445025090	458.740142443337	981.684101135296	944.128706077484	601.388884918128	1016.737481214284	957.136073310116	327.305159254379	1052.071570050236	766.147422520902	581.018691269490	995.737295172785	647.860765377347	647.106561969488	1086.347039406013	604.610071547374	573.936215530425	1113.034031952739	520.851043203341	594.575409600632	1032.313498747189	732.995047208134	369.639980307731	939.757490352984	623.669242423534	298.437971008997	999.734430369277	540.384678346353	377.991545053213	989.372095450967	471.266493093148	388.191725264771	952.731629071787	402.762976443274	376.434869483015	854.646618809536	299.600579138448	319.738742719350	879.523458439544	185.284860906007	396.952192941980	1089.651331958946	432.246642708741	605.068311747715	1024.641770350525	324.428246078312	668.403837396261	1089.128649958351	232.092507111378	621.926375979679	984.236621806051	48.618860517273	593.222871774320	1146.465996354470	118.103505408104	639.358563869657	1066.010379006845	43.289111867606	668.887457261618	1269.987806742268	80.878997144921	670.884153945318	732.500895949957	39.025919098117	430.853203969548	808.479645036607	35.992692334716	352.547858521083	892.822056970213	95.585473808544	383.219466851418	1020.703871437601	39.922242212013	355.821620993491	1132.049952337056	1145.106440919205	129.590686360950	1389.472925455738	1140.893447800098	154.425394903547	791.434032808204	1119.630345201399	707.228159579058	792.728868521265	857.584487740238	721.621540573258	
73	13.935142857143	776.877161047002	1007.275021652081	442.003381693263	1012.048144686854	1433.802400008363	305.964727454378	1069.720987794598	1360.711887377566	485.198628165843	948.694316799734	1436.643615473037	634.888710181977	960.526154886328	1493.981233836717	461.727070724421	980.439718584549	943.389031133853	604.642832845875	1017.207368482239	956.740691929285	330.708882251576	1048.822380321498	763.482298882016	586.064393677128	988.945226202876	645.417127771321	650.505391461862	1080.359444633695	601.986971299592	578.625637774222	1105.647249691061	520.231495183987	597.834647060544	1029.555881365264	731.869945923310	372.100004741236	935.566829858866	624.100498710509	299.235658717115	993.603637363823	539.703404787361	378.527231831443	982.039744573393	471.076363901029	388.419109402559	946.083834385743	402.844284651811	376.542321264858	848.142951849826	299.605405828832	319.651446344529	873.190469912433	185.320526815171	396.963442784783	1086.078162616958	431.387989988944	608.186207588924	1025.265901168172	320.795203557873	671.466518711191	1093.541797414473	230.927259460274	624.871369625476	994.964835952019	45.214663639805	596.241777662338	1156.020535496741	117.355639804323	641.608796430222	1077.413501117959	40.658967246413	671.184070805882	1280.694178758433	82.115506950013	671.642382133233	726.369411347499	38.882028725919	430.837137780469	802.342259273765	35.891520809855	352.499491634660	886.645581801710	95.550912103178	383.211135837074	1014.560691948172	39.963760183725	355.922111042327	1135.520288903594	1145.166677180546	135.356412348663	1392.611813108190	1147.371000097062	162.593754120690	790.784414852832	1118.327852189234	709.658901954963	797.219327404922	856.314016583279	724.678690316433	
74	13.955214285714	777.110556005401	1006.021210552771	444.550164030559	1011.234643289963	1432.958160393477	309.634731987445	1068.435456266219	1360.171953558497	489.181295883113	946.636543155617	1435.965778856788	638.310245736335	959.122528345180	1493.245144472681	465.163032808354	979.826179156183	942.237018892179	608.043171501059	1017.911949726718	956.082474522523	334.276681327634	1046.488021412177	760.593850883513	590.827034262667	983.289803251046	642.690924593465	653.534727199338	1075.453151383505	599.265629753442	582.773916049946	1099.103611793023	518.942578952803	600.598897855647	1027.346775865836	730.552463006938	374.516247273958	931.807909379411	624.331945635854	300.276844881352	988.054381696565	538.876153910994	379.195576150924	975.323019669439	470.706235804562	388.820724707518	939.920120125063	402.731925706414	376.821386846174	841.921045102929	299.592413085708	319.706893827895	867.014684428720	185.256924584421	397.046241088869	1082.545629742436	429.884772360678	610.882531335743	1024.705089511629	317.405396168002	673.794866204228	1095.732555293115	229.489211318442	627.171865316946	1001.609191806364	43.046366307912	598.253950441231	1161.941493846748	116.266553439564	643.304565480816	1084.321048212292	38.801971803228	672.854143394897	1287.077568356454	81.842253302376	672.435775825915	720.232740554577	38.706446935064	430.834442626853	796.203900723876	35.780044515260	352.463459232595	880.465912788519	95.512062371037	383.219499851904	1008.416978114700	40.005595377654	356.014534216135	1138.200577457796	1144.659925299790	141.380351727477	1394.893219891187	1152.515177338983	170.643833552380	791.392048484429	1116.153400042693	712.823919807593	803.095991277945	854.298400888175	728.609784627822	
75	13.975285714286	777.656378273381	1004.432814408985	447.586966634845	1010.175392613198	1431.926328826927	313.644848405385	1067.283459790193	1359.450755662533	493.380811308156	944.948874112516	1434.947290896420	642.218804145280	957.743223531498	1492.246224824955	469.054217774336	979.823045984900	940.819237073010	611.617652216039	1018.852830441667	955.244912442159	338.025351735709	1045.153635126592	757.716717386839	595.205564851429	979.028756198204	639.906724312527	656.196357059670	1071.835165248856	596.661904571470	586.321347553376	1093.714006388007	517.177032509152	602.846001041494	1025.650443092799	729.079994926970	376.923995026043	928.435337576721	624.410091279449	301.614892123084	983.054374828640	537.939045489874	380.060473214437	969.208131747598	470.182241556879	389.454240239819	934.203280836569	402.468328200076	377.312322191365	835.940691690893	299.606081243775	319.943586482815	860.978397887073	185.119613248067	397.213702875322	1079.357669558424	427.886845894591	613.120607039690	1023.303475568324	314.289326176135	675.450051891769	1096.034053445539	227.746106985191	628.785853900034	1004.446943339296	41.818176218851	599.319151615062	1164.556498140304	114.786684475639	644.372077474012	1087.098523632853	37.532739632401	673.920673214954	1289.600115802861	80.141436023532	673.144283554141	714.090872262809	38.507346225479	430.845157198071	790.066323684980	35.662041976046	352.446304275798	874.287962710957	95.476413446405	383.242031014118	1002.277440099733	40.045279293856	356.091710533790	1140.117188971266	1143.714114261290	147.570406645210	1396.396708226423	1156.384243404433	178.518545690932	793.137629556519	1113.285904505189	716.683164849718	810.092516604848	851.730409112673	733.388986147553	
